<svg width="512" height="512" viewBox="0 0 512 512" xmlns="http://www.w3.org/2000/svg">
  <defs>
    <linearGradient id="bg" x1="0%" y1="0%" x2="100%" y2="100%">
      <stop offset="0%" stop-color="#0f1d2e" />
      <stop offset="100%" stop-color="#1c3c4d" />
    </linearGradient>
    <linearGradient id="accent" x1="0%" y1="0%" x2="100%" y2="0%">
      <stop offset="0%" stop-color="#6ce0ff" />
      <stop offset="100%" stop-color="#4ccdda" />
    </linearGradient>
    <linearGradient id="bar" x1="0%" y1="0%" x2="0%" y2="100%">
      <stop offset="0%" stop-color="#ffffff" stop-opacity="0.95" />
      <stop offset="100%" stop-color="#d0f8ff" stop-opacity="0.85" />
    </linearGradient>
    <filter id="shadow" x="-20%" y="-20%" width="140%" height="140%">
      <feDropShadow dx="0" dy="10" stdDeviation="16" flood-color="#000000" flood-opacity="0.35" />
    </filter>
  </defs>
  <rect width="512" height="512" rx="110" fill="url(#bg)" />
  <circle cx="256" cy="260" r="200" fill="#1c2b3a" opacity="0.45" />
  <path d="M256 120 L296 220 L360 220 Q336 260 300 260 L280 260 L280 392 Q280 412 264 424 Q256 430 248 424 Q232 412 232 392 L232 260 L212 260 Q176 260 152 220 L216 220 Z" fill="url(#accent)" filter="url(#shadow)" />
  <g filter="url(#shadow)">
    <rect x="116" y="312" width="280" height="40" rx="18" fill="url(#bar)" />
    <rect x="116" y="300" width="46" height="64" rx="14" fill="#6ce0ff" />
    <rect x="350" y="300" width="46" height="64" rx="14" fill="#6ce0ff" />
    <rect x="184" y="300" width="46" height="64" rx="14" fill="#5cd4f2" />
    <rect x="282" y="300" width="46" height="64" rx="14" fill="#5cd4f2" />
  </g>
</svg>
